<svg xmlns="http://www.w3.org/2000/svg" viewBox="0 0 40 40" fill="none" aria-hidden="true">
  <defs>
    <linearGradient id="bd-g" x1="12" y1="7" x2="28" y2="35" gradientUnits="userSpaceOnUse">
      <stop stop-color="#fff4dc"/>
      <stop offset="0.45" stop-color="#d4a24e"/>
      <stop offset="1" stop-color="#7a4e12"/>
    </linearGradient>
    <filter id="bd-f" x="-15%" y="-10%" width="130%" height="120%">
      <feGaussianBlur in="SourceAlpha" stdDeviation="0.6" result="b"/>
      <feOffset dx="0" dy="1.1" in="b" result="o"/>
      <feFlood flood-color="#a67c2e" flood-opacity="0.28"/>
      <feComposite in2="o" operator="in"/>
      <feMerge><feMergeNode/><feMergeNode in="SourceGraphic"/></feMerge>
    </filter>
  </defs>
  <path d="M7 33.5V14l6-3.2V33.5" stroke="url(#bd-g)" stroke-width="1" stroke-linejoin="round" opacity="0.75"/>
  <path d="M33 33.5V14l-6-3.2V33.5" stroke="url(#bd-g)" stroke-width="1" stroke-linejoin="round" opacity="0.75"/>
  <g filter="url(#bd-f)">
    <path d="M8 33.5V12.5L20 6.5l12 6V33.5" stroke="url(#bd-g)" stroke-width="1.4" stroke-linejoin="round"/>
    <path d="M8 33.5h24" stroke="url(#bd-g)" stroke-width="1.2" stroke-linecap="round"/>
    <path d="M15 33.5v-8h10v8" stroke="url(#bd-g)" stroke-width="1.15" stroke-linejoin="round"/>
    <path d="M17 25.5h6" stroke="url(#bd-g)" stroke-width="0.55" stroke-linecap="round" opacity="0.6"/>
    <path d="M20 6.5v2.2M18.2 7.6h3.6" stroke="url(#bd-g)" stroke-width="0.5" stroke-linecap="round" opacity="0.55"/>
  </g>
  <path stroke="#7ed4ff" stroke-width="0.85" stroke-linecap="round" stroke-opacity="0.9"
    d="M11 15.2h1.1M11 17.8h1.1M11 20.4h1.1M11 23h1.1M11 25.6h1.1M13.6 15.2h1.1M13.6 17.8h1.1M13.6 20.4h1.1M13.6 23h1.1M13.6 25.6h1.1M16.2 15.2h1.1M16.2 17.8h1.1M16.2 20.4h1.1M16.2 23h1.1M16.2 25.6h1.1M22.7 15.2h1.1M22.7 17.8h1.1M22.7 20.4h1.1M22.7 23h1.1M22.7 25.6h1.1M25.3 15.2h1.1M25.3 17.8h1.1M25.3 20.4h1.1M25.3 23h1.1M25.3 25.6h1.1M27.9 15.2h1.1M27.9 17.8h1.1M27.9 20.4h1.1M27.9 23h1.1M27.9 25.6h1.1"/>
  <path d="M9.5 33.5h3M27.5 33.5h3" stroke="url(#bd-g)" stroke-width="0.5" stroke-linecap="round" opacity="0.5"/>
  <path d="M10 12.5l1-.5M29 12.5l-1-.5" stroke="url(#bd-g)" stroke-width="0.45" stroke-linecap="round" opacity="0.45"/>
</svg>
