<svg xmlns="http://www.w3.org/2000/svg" viewBox="0 0 40 40" fill="none" aria-hidden="true">
  <defs>
    <linearGradient id="tr-g" x1="6" y1="28" x2="32" y2="12" gradientUnits="userSpaceOnUse">
      <stop stop-color="#9a7020"/>
      <stop offset="0.45" stop-color="#e8c878"/>
      <stop offset="1" stop-color="#fff8e8"/>
    </linearGradient>
    <linearGradient id="tr-area" x1="6" y1="26" x2="6" y2="32" gradientUnits="userSpaceOnUse">
      <stop stop-color="#e8b848" stop-opacity="0.22"/>
      <stop offset="1" stop-color="#e8b848" stop-opacity="0.02"/>
    </linearGradient>
    <filter id="tr-f" x="-10%" y="-15%" width="120%" height="130%">
      <feGaussianBlur in="SourceAlpha" stdDeviation="0.55" result="b"/>
      <feOffset dx="0.25" dy="1.1" in="b" result="o"/>
      <feFlood flood-color="#c9a040" flood-opacity="0.28"/>
      <feComposite in2="o" operator="in"/>
      <feMerge><feMergeNode/><feMergeNode in="SourceGraphic"/></feMerge>
    </filter>
  </defs>
  <path stroke="#7ec8ff" stroke-width="0.35" opacity="0.22" d="M7 12v18M12.5 12v18M18 12v18M23.5 12v18M29 12v18M7 16h25M7 20.5h25M7 25h25"/>
  <path d="M7 27.5L13 19l5 4 6.5-10.5L33 18v13.5H7V27.5z" fill="url(#tr-area)"/>
  <g filter="url(#tr-f)">
    <path d="M7 27.5l6-8.5 5 4 6.5-10.5 8.5 5.5" stroke="url(#tr-g)" stroke-width="1.45" stroke-linecap="round" stroke-linejoin="round"/>
  </g>
  <circle cx="7" cy="27.5" r="1.15" stroke="#8ed8ff" stroke-width="0.85" fill="rgba(8,28,48,0.35)"/>
  <circle cx="13" cy="19" r="1.15" stroke="#8ed8ff" stroke-width="0.85" fill="rgba(8,28,48,0.35)"/>
  <circle cx="18" cy="23" r="1.15" stroke="#8ed8ff" stroke-width="0.85" fill="rgba(8,28,48,0.35)"/>
  <circle cx="24.5" cy="12.5" r="1.15" stroke="#8ed8ff" stroke-width="0.85" fill="rgba(8,28,48,0.35)"/>
  <circle cx="33" cy="18" r="1.15" stroke="#8ed8ff" stroke-width="0.85" fill="rgba(8,28,48,0.35)"/>
  <path d="M28.5 11H34v5.5" stroke="#6ed0ff" stroke-width="1.3" stroke-linecap="round" stroke-linejoin="round"/>
  <path d="M31.5 11l2.2 2.2M32.8 12.3L34 11" stroke="#6ed0ff" stroke-width="0.45" stroke-linecap="round" opacity="0.75"/>
  <path d="M7 31.5h26" stroke="url(#tr-g)" stroke-width="0.95" stroke-linecap="round" opacity="0.5"/>
  <path d="M9 31.5v1.1M16 31.5v1.1M23 31.5v1.1M30 31.5v1.1" stroke="url(#tr-g)" stroke-width="0.35" stroke-linecap="round" opacity="0.4"/>
</svg>
