<svg xmlns="http://www.w3.org/2000/svg" viewBox="0 0 40 40" fill="none" aria-hidden="true">
  <defs>
    <linearGradient id="mp-g" x1="6" y1="10" x2="34" y2="30" gradientUnits="userSpaceOnUse">
      <stop stop-color="#fff6e0"/>
      <stop offset="0.5" stop-color="#d4a038"/>
      <stop offset="1" stop-color="#7a5010"/>
    </linearGradient>
    <filter id="mp-f" x="-12%" y="-12%" width="124%" height="124%">
      <feGaussianBlur in="SourceAlpha" stdDeviation="0.55" result="b"/>
      <feOffset dx="0.6" dy="1" in="b" result="o"/>
      <feFlood flood-color="#a67c28" flood-opacity="0.26"/>
      <feComposite in2="o" operator="in"/>
      <feMerge><feMergeNode/><feMergeNode in="SourceGraphic"/></feMerge>
    </filter>
  </defs>
  <g filter="url(#mp-f)">
    <path d="M6 10.5l8-2.5v21.8l-8 2.5V10.5z" stroke="url(#mp-g)" stroke-width="1.25" stroke-linejoin="round"/>
    <path d="M14 8l8.5 2.8v21.6l-8.5-2.8V8z" stroke="url(#mp-g)" stroke-width="1.25" stroke-linejoin="round"/>
    <path d="M22.5 10.8l8.5 2.4v21.8l-8.5-2.4V10.8z" stroke="url(#mp-g)" stroke-width="1.25" stroke-linejoin="round"/>
    <path d="M14 8l-.35.12M22.5 10.8l-.4.14" stroke="url(#mp-g)" stroke-width="0.4" stroke-linecap="round" opacity="0.5"/>
  </g>
  <path stroke="#8ed8ff" stroke-width="0.75" stroke-linecap="round" stroke-opacity="0.88"
    d="M9.5 15h2.2M9.5 18.5h2.2M9.5 22h2.2M17 16h2.2M17 19.5h2.2M17 23h2.2M25 17h2.2M25 20.5h2.2M25 24h2.2"/>
  <path d="M16.5 12.5c1.2 2.2 2 4.8 2.2 7.2" stroke="#7ec8ff" stroke-width="0.45" stroke-linecap="round" stroke-dasharray="0.8 1.2" opacity="0.55"/>
  <path d="M24 13c-0.8 1.8-1.2 3.6-1 5.5.3 2.4 1.5 4.6 3 6.2" stroke="#7ec8ff" stroke-width="0.4" stroke-linecap="round" opacity="0.45"/>
  <circle cx="11" cy="11.5" r="1.8" stroke="url(#mp-g)" stroke-width="0.45" opacity="0.55"/>
  <path d="M11 10.3v2.4M9.8 11.5h2.4" stroke="#8ed8ff" stroke-width="0.4" stroke-linecap="round" opacity="0.65"/>
  <path d="M28 14l1.2 1.2M30 16.5l0.8 0.8" stroke="#8ed8ff" stroke-width="0.35" stroke-linecap="round" stroke-dasharray="0.6 0.9" opacity="0.5"/>
  <path d="M8 27c2.5 0.8 5.2 1.2 8 1.2s5.5-.4 8-1.2" stroke="url(#mp-g)" stroke-width="0.4" stroke-linecap="round" opacity="0.35"/>
</svg>
