<svg xmlns="http://www.w3.org/2000/svg" viewBox="0 0 40 40" fill="none" aria-hidden="true">
  <defs>
    <linearGradient id="gl-g1" x1="8" y1="8" x2="32" y2="32" gradientUnits="userSpaceOnUse">
      <stop stop-color="#fff8e8"/>
      <stop offset="0.4" stop-color="#e6bc68"/>
      <stop offset="1" stop-color="#8a5a1e"/>
    </linearGradient>
    <linearGradient id="gl-g2" x1="20" y1="6" x2="20" y2="34" gradientUnits="userSpaceOnUse">
      <stop stop-color="#b8e6ff"/>
      <stop offset="1" stop-color="#3d8ec4" stop-opacity="0.45"/>
    </linearGradient>
    <filter id="gl-f" x="-18%" y="-18%" width="136%" height="136%">
      <feGaussianBlur in="SourceAlpha" stdDeviation="0.75" result="b"/>
      <feOffset dx="0" dy="1" in="b" result="o"/>
      <feFlood flood-color="#c9a050" flood-opacity="0.32"/>
      <feComposite in2="o" operator="in"/>
      <feMerge><feMergeNode/><feMergeNode in="SourceGraphic"/></feMerge>
    </filter>
  </defs>
  <circle cx="20" cy="20" r="17.5" stroke="url(#gl-g1)" stroke-width="0.55" stroke-dasharray="1.8 2.4" opacity="0.55"/>
  <g filter="url(#gl-f)">
    <circle cx="20" cy="20" r="12.8" stroke="url(#gl-g1)" stroke-width="1.35"/>
    <ellipse cx="20" cy="20" rx="6.2" ry="12.8" stroke="url(#gl-g2)" stroke-width="0.95" stroke-linecap="round"/>
    <ellipse cx="20" cy="20" rx="3.1" ry="12.8" stroke="url(#gl-g2)" stroke-width="0.75" stroke-linecap="round" opacity="0.65"/>
    <path d="M5.5 20h29" stroke="url(#gl-g1)" stroke-width="1.15" stroke-linecap="round"/>
    <path d="M20 7.2c2.8 3.4 4.4 7.8 4.4 12.8s-1.6 9.4-4.4 12.8" stroke="url(#gl-g2)" stroke-width="0.85" stroke-linecap="round"/>
    <path d="M20 7.2c-2.8 3.4-4.4 7.8-4.4 12.8s1.6 9.4 4.4 12.8" stroke="url(#gl-g2)" stroke-width="0.85" stroke-linecap="round"/>
    <path d="M20 9.5c1.9 2.8 3 6.5 3 10.5s-1.1 7.7-3 10.5" stroke="url(#gl-g2)" stroke-width="0.55" stroke-linecap="round" opacity="0.5"/>
    <path d="M20 9.5c-1.9 2.8-3 6.5-3 10.5s1.1 7.7 3 10.5" stroke="url(#gl-g2)" stroke-width="0.55" stroke-linecap="round" opacity="0.5"/>
  </g>
  <path d="M9 20h2M13.5 20h1.2M25.3 20h1.2M29 20h2" stroke="url(#gl-g1)" stroke-width="0.65" stroke-linecap="round" opacity="0.85"/>
  <path d="M11 14.5c2.2 1.1 4.8 1.7 9 1.7s6.8-.6 9-1.7" stroke="#7ec8ff" stroke-width="0.45" stroke-linecap="round" stroke-dasharray="1.2 1.6" opacity="0.7"/>
  <path d="M12 25c2.5-1 5.5-1.5 8-1.5s5.5.5 8 1.5" stroke="#7ec8ff" stroke-width="0.45" stroke-linecap="round" stroke-dasharray="1 1.4" opacity="0.55"/>
</svg>
