<svg xmlns="http://www.w3.org/2000/svg" viewBox="0 0 40 40" fill="none" aria-hidden="true">
  <defs>
    <linearGradient id="sh-g" x1="20" y1="5" x2="20" y2="34" gradientUnits="userSpaceOnUse">
      <stop stop-color="#fff6dc"/>
      <stop offset="0.5" stop-color="#e0b848"/>
      <stop offset="1" stop-color="#8a6210"/>
    </linearGradient>
    <filter id="sh-f" x="-20%" y="-15%" width="140%" height="130%">
      <feGaussianBlur in="SourceAlpha" stdDeviation="0.65" result="b"/>
      <feOffset dx="0" dy="1" in="b" result="o"/>
      <feFlood flood-color="#c99420" flood-opacity="0.3"/>
      <feComposite in2="o" operator="in"/>
      <feMerge><feMergeNode/><feMergeNode in="SourceGraphic"/></feMerge>
    </filter>
  </defs>
  <g filter="url(#sh-f)">
    <path d="M20 5.5l9.5 3.4v8.6c0 5.6-3.9 10.8-9.5 12.5-5.6-1.7-9.5-6.9-9.5-12.5V8.9L20 5.5z" stroke="url(#sh-g)" stroke-width="1.45" stroke-linejoin="round"/>
    <path d="M20 8.2l7.2 2.6v7.1c0 4.2-2.9 8.1-7.2 9.4-4.3-1.3-7.2-5.2-7.2-9.4v-7.1L20 8.2z" stroke="url(#sh-g)" stroke-width="0.55" stroke-linejoin="round" opacity="0.45"/>
  </g>
  <circle cx="14.2" cy="11.5" r="0.65" fill="#d4a84b" opacity="0.75"/>
  <circle cx="25.8" cy="11.5" r="0.65" fill="#d4a84b" opacity="0.75"/>
  <circle cx="12.5" cy="16.2" r="0.55" fill="#d4a84b" opacity="0.55"/>
  <circle cx="27.5" cy="16.2" r="0.55" fill="#d4a84b" opacity="0.55"/>
  <circle cx="13.8" cy="22" r="0.55" fill="#d4a84b" opacity="0.4"/>
  <circle cx="26.2" cy="22" r="0.55" fill="#d4a84b" opacity="0.4"/>
  <path d="M14.5 19.5l4.2 4.2 8.8-8.8" stroke="#6ed8ff" stroke-width="1.55" stroke-linecap="round" stroke-linejoin="round"/>
  <path d="M22.8 15l1.2 1.2M25.5 17.8l0.9 0.9" stroke="#6ed8ff" stroke-width="0.55" stroke-linecap="round" opacity="0.65"/>
  <path d="M20 5.2l-1.2 1.4h2.4L20 5.2z" stroke="url(#sh-g)" stroke-width="0.45" stroke-linejoin="round" opacity="0.6"/>
</svg>
